<?xml version="1.0"?>
<svg xmlns="http://www.w3.org/2000/svg" xmlns:xlink="http://www.w3.org/1999/xlink" id="Gradient" viewBox="0 0 64 64" width="512" height="512"><defs><linearGradient id="New_Gradient_Swatch_5" x1="3.043" y1="3.543" x2="60.457" y2="60.957" gradientUnits="userSpaceOnUse"><stop offset="0" stop-color="#662d91"/><stop offset="0.437" stop-color="#3873b3"/><stop offset="1" stop-color="#00c9dd"/></linearGradient></defs><path d="M4,61H60a1,1,0,0,0,1-1V32a1,1,0,0,0-1-1H33V4a1,1,0,0,0-1-1H4A1,1,0,0,0,3,4V60A1,1,0,0,0,4,61ZM31,42.949A11.01,11.01,0,0,1,21.051,33H31Zm0,2.013v3.007A16.024,16.024,0,0,1,16.031,33h3.007A13.021,13.021,0,0,0,31,44.962ZM33,33h9.949A11.01,11.01,0,0,1,33,42.949ZM21.051,31A11.01,11.01,0,0,1,31,21.051V31ZM31,19.038A13.021,13.021,0,0,0,19.038,31H16.031A16.024,16.024,0,0,1,31,16.031ZM14.051,33A17.994,17.994,0,0,0,31,49.949V59H18.949A15,15,0,0,0,5,45.051V33ZM5,51.059A9.012,9.012,0,0,1,12.941,59H5ZM14.955,59A11.017,11.017,0,0,0,5,49.045V47.038A13.021,13.021,0,0,1,16.962,59Zm32.083,0A13.021,13.021,0,0,1,59,47.038v2.007A11.017,11.017,0,0,0,49.045,59Zm4.021,0A9.012,9.012,0,0,1,59,51.059V59ZM59,45.051A15,15,0,0,0,45.051,59H33V49.949A17.994,17.994,0,0,0,49.949,33H59ZM47.969,33A16.024,16.024,0,0,1,33,47.969V44.962A13.021,13.021,0,0,0,44.962,33ZM31,14.051A17.994,17.994,0,0,0,14.051,31H5V18.949A15,15,0,0,0,18.949,5H31ZM16.962,5A13.021,13.021,0,0,1,5,16.962V14.955A11.017,11.017,0,0,0,14.955,5ZM12.941,5A9.012,9.012,0,0,1,5,12.941V5ZM35.6,19.436l.907,1.813c.108.218.228.431.355.641L35.046,27.7A1,1,0,0,0,36,29a1.016,1.016,0,0,0,.3-.045l5.708-1.785,3.4,2.04A5.553,5.553,0,0,0,48.26,30h3.224a5.547,5.547,0,0,0,5.151-7.607L56.077,21a10.925,10.925,0,0,0-.2-8.491l5.816-5.817a1,1,0,0,0,0-1.414L58.707,2.293a1,1,0,0,0-1.414,0L51.769,7.817a10.893,10.893,0,0,0-3.982-1.533l-.819-.137A10.893,10.893,0,0,0,45.186,6H43.864A9.288,9.288,0,0,0,35.6,19.436Zm4.858-2.351a5.177,5.177,0,0,1,4.924-3.616c.168,0,.339.008.509.025a5.118,5.118,0,0,1,2.345.856l-1.943,1.943,1.414,1.414,1.943-1.943a5.118,5.118,0,0,1,.856,2.345,5.173,5.173,0,0,1-3.591,5.432l-9.392,2.935Zm13.758,3.182-.145.362a1.014,1.014,0,0,0,0,.743l.706,1.764A3.545,3.545,0,0,1,51.484,28H48.26a3.553,3.553,0,0,1-1.825-.5l-1.872-1.123,2.948-.922A7.179,7.179,0,0,0,52.5,17.91a7.1,7.1,0,0,0-1.416-3.576l.92-.92.778.778a1,1,0,0,0,1.414,0l.141-.14A8.9,8.9,0,0,1,54.216,20.267ZM58,4.414l1.571,1.571-6.086,6.086L51.914,10.5Zm-19.7,6.2A7.23,7.23,0,0,1,43.864,8h1.322a8.977,8.977,0,0,1,1.453.12l.819.137a8.9,8.9,0,0,1,2.864,1.006l-.529.53a1,1,0,0,0,0,1.414l.793.793-.92.92A7.12,7.12,0,0,0,38.55,16.488l-.841,2.693-.32-.64a7.333,7.333,0,0,1-.635-1.868A7.219,7.219,0,0,1,38.3,10.609Z" style="fill:url(#New_Gradient_Swatch_5)"/></svg>
